<svg width="1200" height="630" viewBox="0 0 1200 630" fill="none" xmlns="http://www.w3.org/2000/svg" role="img" aria-labelledby="title desc">
  <title id="title">Prototype A editorial badge for upgrade-tuist-cli</title>
  <desc id="desc">Editorial premium landing image for the Tuist upgrade agent skill.</desc>
  <defs>
    <linearGradient id="bg" x1="0" y1="0" x2="1200" y2="630"><stop stop-color="#080F0D"/><stop offset="0.58" stop-color="#151A16"/><stop offset="1" stop-color="#3A1C0D"/></linearGradient>
    <radialGradient id="glow" cx="0" cy="0" r="1" gradientTransform="translate(967 105) rotate(129) scale(475 385)" gradientUnits="userSpaceOnUse"><stop stop-color="#FFBD55" stop-opacity=".72"/><stop offset="1" stop-color="#FF6236" stop-opacity="0"/></radialGradient>
    <radialGradient id="sea" cx="0" cy="0" r="1" gradientTransform="translate(138 528) rotate(-30) scale(475 310)" gradientUnits="userSpaceOnUse"><stop stop-color="#4AF4C4" stop-opacity=".54"/><stop offset="1" stop-color="#4AF4C4" stop-opacity="0"/></radialGradient>
    <linearGradient id="stroke" x1="136" y1="75" x2="1065" y2="565"><stop stop-color="#FFF1A8"/><stop offset=".38" stop-color="#4AF4C4"/><stop offset=".72" stop-color="#FFBD55"/><stop offset="1" stop-color="#FF6236"/></linearGradient>
    <pattern id="grid" width="48" height="48" patternUnits="userSpaceOnUse"><path d="M48 0H0V48" stroke="#F4E9C4" stroke-opacity=".055"/></pattern>
  </defs>
  <rect width="1200" height="630" fill="url(#bg)"/><rect width="1200" height="630" fill="url(#glow)"/><rect width="1200" height="630" fill="url(#sea)"/><rect width="1200" height="630" fill="url(#grid)"/>
  <path d="M874 0h300L779 630H548L874 0Z" fill="#FF6236" fill-opacity=".08"/><path d="M-38 468C144 384 288 392 462 460c185 72 330 51 496-33 94-48 174-54 282-22" stroke="#4AF4C4" stroke-opacity=".18" stroke-width="2"/>
  <rect x="135" y="76" width="930" height="488" rx="34" fill="#0C1210" fill-opacity=".91" stroke="url(#stroke)" stroke-width="1.8"/>
  <rect x="156" y="96" width="888" height="448" rx="24" stroke="#F4E9C4" stroke-opacity=".1"/>
  <g transform="translate(185 116)"><rect width="178" height="36" rx="18" fill="#0E1714" stroke="#4AF4C4" stroke-opacity=".42"/><circle cx="23" cy="18" r="7" fill="#4AF4C4"/><text x="42" y="23" fill="#E2FFF5" font-family="Avenir Next, Futura, sans-serif" font-size="13" font-weight="800" letter-spacing="2.4">AGENT SKILL</text></g>
  <text x="183" y="205" fill="#FFF4DA" font-family="Georgia, 'Times New Roman', serif" font-size="76" font-weight="700" letter-spacing="-3.6">Upgrade</text>
  <text x="183" y="284" fill="#FFF4DA" font-family="Georgia, 'Times New Roman', serif" font-size="76" font-weight="700" letter-spacing="-3.6">Tuist CLI</text>
  <text x="187" y="329" fill="#CEE0D9" font-family="Avenir Next, Futura, sans-serif" font-size="24" font-weight="600">Safely bump Tuist, build-verify it,</text>
  <text x="187" y="362" fill="#CEE0D9" font-family="Avenir Next, Futura, sans-serif" font-size="24" font-weight="600">and ship the PR with release notes.</text>
  <g transform="translate(185 425)" font-family="Avenir Next, Futura, sans-serif" font-size="15" font-weight="800"><rect width="166" height="48" rx="16" fill="#101816" stroke="#4AF4C4" stroke-opacity=".3"/><text x="20" y="30" fill="#4AF4C4">detect version</text><path d="M184 24h41m-10-8 10 8-10 8" stroke="#F4E9C4" stroke-opacity=".28" stroke-width="2"/><rect x="244" width="144" height="48" rx="16" fill="#101816" stroke="#FFBD55" stroke-opacity=".34"/><text x="264" y="30" fill="#FFD17A">clean build</text><path d="M407 24h41m-10-8 10 8-10 8" stroke="#F4E9C4" stroke-opacity=".28" stroke-width="2"/><rect x="468" width="128" height="48" rx="16" fill="#101816" stroke="#FF6236" stroke-opacity=".38"/><text x="494" y="30" fill="#FFA07E">open PR</text></g>
  <g transform="translate(734 150)"><circle cx="165" cy="165" r="141" fill="#0C1211" stroke="url(#stroke)" stroke-width="2"/><circle cx="165" cy="165" r="108" stroke="#FFF1A8" stroke-opacity=".12"/><g transform="translate(59 59) scale(.414)" stroke="#FFF4DA" stroke-width="16" stroke-linecap="round" fill="none" opacity=".96"><path d="M126.933 369.951C126.933 369.951 180.8 412.8 257.6 412.8C334.4 412.8 388.267 369.951 388.267 369.951"/><path d="M112 297.21C112 297.21 205.333 409.6 257.6 409.6C309.867 409.6 403.201 297.21 403.201 297.21"/><path d="M112 207.297C112 207.297 205.333 409.6 257.6 409.6C309.867 409.6 403.201 207.297 403.201 207.297"/><path d="M171.734 128.624C171.734 128.624 230.4 409.6 257.6 409.6C284.8 409.6 343.466 128.624 343.466 128.624"/><path d="M258.667 409.6V102.4"/><rect x="7" y="7" width="498" height="498" rx="249"/></g><circle cx="60" cy="70" r="9" fill="#4AF4C4"/><circle cx="282" cy="94" r="6" fill="#FFBD55"/><circle cx="273" cy="263" r="10" fill="#FF6236"/></g>
  <g transform="translate(731 457)"><rect width="268" height="58" rx="18" fill="#07110F" fill-opacity=".84" stroke="#F4E9C4" stroke-opacity=".18"/><circle cx="31" cy="29" r="13" fill="#4AF4C4" fill-opacity=".16" stroke="#4AF4C4"/><path d="M25 29l5 5 9-10" stroke="#4AF4C4" stroke-width="3" stroke-linecap="round" stroke-linejoin="round"/><text x="55" y="25" fill="#FFF4DA" font-family="Avenir Next, Futura, sans-serif" font-size="15" font-weight="800">Rollback-aware automation</text><text x="55" y="45" fill="#B3C9C0" font-family="Avenir Next, Futura, sans-serif" font-size="12" font-weight="700">non-interactive · verified · PR-ready</text></g>
  <text x="184" y="520" fill="#C9DAD3" font-family="Avenir Next, Futura, sans-serif" font-size="15" font-weight="800" letter-spacing="1.6">npx skills add 2sem/tuist-upgrade-skill</text>
  <g transform="translate(911 104)"><rect width="126" height="36" rx="18" fill="#FFF1A8" fill-opacity=".1" stroke="#FFF1A8" stroke-opacity=".18"/><text x="18" y="24" fill="#FFF1A8" font-family="Avenir Next, Futura, sans-serif" font-size="13" font-weight="900" letter-spacing="1.4">TUIST TOOL</text></g>
</svg>
